<svg xmlns="http://www.w3.org/2000/svg" viewBox="0 0 450.07 124.92"><defs><style>.cls-1{fill:#ff9a17;}.cls-2{fill:#ffc917;}</style></defs><title>Asset 1</title><g id="Layer_2" data-name="Layer 2"><g id="Layer_1-2" data-name="Layer 1"><path class="cls-1" d="M41.67,0C51.1,15.23,61.42,31.67,71.51,48.25c5.74,9.43,10.57,19.3,11.66,30.53,1.75,17.79-5.73,33-21.17,40.77-15.86,8-31.82,7.32-46.08-3.72s-18.83-26-14.18-43.24c2.1-7.76,5.88-15.17,9.62-22.36,3.36-6.48,7.82-12.38,11.6-18.65C29.54,20.66,36,9.65,41.67,0ZM37.61,114.15l3.61-3.57c-1.6-1.25-3.06-3.31-4.82-3.62-11.72-2-17.78-8.18-19.65-19.91-.28-1.77-2.48-3.23-3.8-4.84-1.15,1.71-3.29,3.43-3.29,5.14C9.69,101,22.11,113.55,37.61,114.15Z"/><path class="cls-2" d="M381.92,97.43V108.5H113.54V97.43Z"/><path class="cls-1" d="M404.86,76.51v32.37H390.5V28.36h12.2c.15,2.69.3,5.27.44,7.76,3.69-2.49,7-5.58,11-7.25,12.1-5.13,26,.75,32.34,13.16,8.94,17.5.51,40.33-16.47,44.31C420.13,88.65,412.05,85.39,404.86,76.51ZM435,56.72c-.06-8.49-5.83-15.69-13.45-16.8-6.4-.94-12.07,1.14-15,6.63a21.34,21.34,0,0,0,.05,19.59,14.69,14.69,0,0,0,17.21,7.8C430.2,72.08,435,64.63,435,56.72Z"/><path class="cls-1" d="M313,57.19c0,17.2-12.75,29.8-30.1,29.84-17.56,0-30.54-12.79-30.43-30.08s13-29.92,30.67-29.83C300.38,27.21,313.07,40,313,57.19Zm-46.42-.68c1.12,13.73,12.63,22.07,23,16.27,6-3.32,8.29-8.9,8.37-15.42.08-6.72-2.22-12.44-8.29-16-5.48-3.2-13.29-2.18-17.2,3C269.85,47.89,268.52,52.42,266.6,56.51Z"/><path class="cls-1" d="M349.9,87c-17.55,0-30.58-12.81-30.48-30.07s12.85-29.77,30.19-29.84C367.15,27.06,380,39.79,380,57.18,380,74.36,367.24,87,349.9,87ZM333.65,56.58c1,7.46,3.93,13.25,9.12,16a13.86,13.86,0,0,0,14.67-.38c8.49-5.28,10.2-19.29,3.44-27.41-5.66-6.81-16.3-7.15-21.74-.1C336.55,48.1,335.43,52.6,333.65,56.58Z"/><path class="cls-1" d="M215.67,87c-17.28,0-30.07-12.73-30.14-29.87-.08-17.33,12.83-30.06,30.44-30S246.15,40,246,57.48C245.92,74.6,233.1,87.08,215.67,87Zm15.38-30c0-10.08-6.48-17.44-15.29-17.37s-15,7.48-15,17.66c.06,9.95,6.28,17,15,17.07C224.63,74.46,231.06,67.16,231.05,57.06Z"/><path class="cls-1" d="M116.94,85.61V42.7l-7.5-.72V31.42l7.23-.55c.27-9.91.92-19.73,11.22-24.87,6.22-3.11,14.91-2.2,22.23,2.08-.87,3.23-1.76,6.55-2.64,9.81-14-1.93-17.5,1.05-15.33,13.16h13.16V42.11H131.73v43.5Z"/><path class="cls-1" d="M180.71,73.17c.63,3.57,1.2,6.82,1.85,10.53-6.83,3-13.65,4.38-20.78,1.84a10.75,10.75,0,0,1-7.51-10.3c-.22-23.12-.1-46.25-.1-69.68h14.65V64.07C168.83,73.77,170.61,75.22,180.71,73.17Z"/></g></g></svg>